<svg xmlns="http://www.w3.org/2000/svg" viewBox="0 0 255.63 73.05"><defs><style>.cls-1{fill:#f89521;}.cls-2{fill:#0d2837;}.cls-3{fill:#b51f34;}</style></defs><title>Asset 2</title><g id="Layer_2" data-name="Layer 2"><g id="Layer_1-2" data-name="Layer 1"><path class="cls-1" d="M160.24,53.37,167,55.05a4.15,4.15,0,0,0,5.16-4v-9.2l-8.91-1.55V50a1.13,1.13,0,0,1-1.4,1.09l-1.58-.39Z"/><polygon class="cls-2" points="240.69 1.45 246.67 55.18 255.63 55.18 255.63 1.45 240.69 1.45"/><rect class="cls-3" x="222.72" y="1.45" width="11.95" height="53.73"/><polygon class="cls-3" points="213.79 1.45 202.01 1.45 210.98 55.18 222.76 55.18 213.79 1.45"/><path class="cls-3" d="M232.86,73l1.68-6.72a4.16,4.16,0,0,0-4-5.17H212l1.48,8.92h16a1.12,1.12,0,0,1,1.09,1.39l-.4,1.59Z"/><polygon class="cls-1" points="205 55.18 178.11 55.21 178.11 1.45 196.04 1.45 205 55.18"/><path class="cls-2" d="M17.67,2.76a5.9,5.9,0,0,0,1.1.63,4.16,4.16,0,0,0,.89-1q.53-.75.45-1A1.25,1.25,0,0,0,19.68.8a4,4,0,0,0-.84-.59,1.16,1.16,0,0,0-.67-.2,1,1,0,0,0-.56.41,4,4,0,0,0-.57.82,2.76,2.76,0,0,0-.31.71,4.41,4.41,0,0,0,.94.81"/><path class="cls-2" d="M17.09,8.46a5.56,5.56,0,0,1,1.64-.27,2.32,2.32,0,0,1,1,.19,1,1,0,0,1,.54.51c-.08.15-.42.25-1,.32a18.29,18.29,0,0,1-2.09.1c-.66,0-1.24,0-1.75-.06a6.65,6.65,0,0,1,1.69-.79m-15.51,8a6.28,6.28,0,0,0,4.18,1.19,17.78,17.78,0,0,0,5-.84A7.29,7.29,0,0,0,12,12.45a16.29,16.29,0,0,0,3.69.38,21.3,21.3,0,0,0,3.53-.28,11,11,0,0,0,2.45-.62,6.11,6.11,0,0,0,.69-1.49,5.17,5.17,0,0,0,.29-1.39A5.32,5.32,0,0,0,22.2,6.8a3.46,3.46,0,0,0-1.26-1.5,3.26,3.26,0,0,0-1.85-.53A5.9,5.9,0,0,0,16,5.83a13.06,13.06,0,0,0-3.33,3.24,1.9,1.9,0,0,1-1.05-.55,7.23,7.23,0,0,1-.83-1.25l-.16-.08L7.7,8.41a17.1,17.1,0,0,1,.7,2.35,19,19,0,0,1,.46,2.75,12.28,12.28,0,0,1-3,.48,2.61,2.61,0,0,1-1.75-.5,2,2,0,0,1-.57-1.56,9.86,9.86,0,0,1,.72-3.16l-2.76-.9A14.47,14.47,0,0,0,.2,13.13,4.21,4.21,0,0,0,1.58,16.5"/><path class="cls-2" d="M24.27,12.15a7.5,7.5,0,0,0,1.67.43,13.28,13.28,0,0,0,2,.15,15,15,0,0,0,2.14-.15A9.59,9.59,0,0,0,32,12.15a5,5,0,0,0,.61-1.6,9.53,9.53,0,0,0,.21-2,8.69,8.69,0,0,0-.36-2.62l-3.22.74c.35,1,.58,1.73.7,2.22A4.88,4.88,0,0,1,28.53,9a9,9,0,0,1-1.32-.1c0-.85,0-1.53,0-2q0-2.49-.18-5.46l-3.22.18L24,5.65a61.44,61.44,0,0,0,.3,6.5"/><path class="cls-2" d="M29.71,13.71a.81.81,0,0,0-.54.35,5.46,5.46,0,0,0-.58.85,2.31,2.31,0,0,0-.78-.75,2,2,0,0,0-1-.45c-.21,0-.48.23-.8.7a4.32,4.32,0,0,0-.6,1.12,5.08,5.08,0,0,0,.88.73,6.26,6.26,0,0,0,1,.61,3.1,3.1,0,0,0,.52-.52,4.57,4.57,0,0,0,.52-.74,4.61,4.61,0,0,0,.86.71,6.63,6.63,0,0,0,1,.55A3.94,3.94,0,0,0,31,16a1.7,1.7,0,0,0,.44-1c0-.19-.29-.44-.75-.77a2.1,2.1,0,0,0-1-.49"/><path class="cls-2" d="M33.43,16.87a7.51,7.51,0,0,0,1.76,1,7.2,7.2,0,0,0,.53-.91c.29-.53.59-1.12.89-1.79q.7-1.55,1.08-2.58a9,9,0,0,0,1.48.16H58.48a16.52,16.52,0,0,0,4.28-.5,5.76,5.76,0,0,0,.64-1.8,11.94,11.94,0,0,0,.18-2.16q0-2.17-.28-6.86l-3.22.18.12,1.18c.11,1.09.21,2.19.31,3.3s.16,2.06.19,2.86C60.1,9,59.36,9,58.48,9H39.17Q38.72,9,37.82,9a12.21,12.21,0,0,1-1.73-.24l-.18.12a20,20,0,0,1-1.64,3.76,33.82,33.82,0,0,1-2.1,3.22,7.06,7.06,0,0,0,1.26,1.06"/><path class="cls-2" d="M65.12,12.69l.12.1a12.58,12.58,0,0,0,1.82-.17,4.17,4.17,0,0,0,1.34-.39c.06-.91.08-2.09.08-3.54,0-2.29-.08-4.72-.26-7.28L65,1.59q.24,4.56.24,7.78c0,1.15,0,2.25-.1,3.32"/><path class="cls-2" d="M90.55,2.76a6.24,6.24,0,0,0,1.1.63,4,4,0,0,0,.89-1q.54-.75.45-1c0-.14-.17-.32-.43-.55a4,4,0,0,0-.84-.59,1.15,1.15,0,0,0-.67-.2,1.06,1.06,0,0,0-.56.41,5,5,0,0,0-.57.82,3.17,3.17,0,0,0-.31.71,5,5,0,0,0,.94.81"/><path class="cls-2" d="M90,8.46a5.66,5.66,0,0,1,1.64-.27,2.29,2.29,0,0,1,1,.19,1,1,0,0,1,.54.51c-.08.15-.41.25-1,.32a18.17,18.17,0,0,1-2.09.1q-1,0-1.74-.06A6.75,6.75,0,0,1,90,8.46m-15.5,8a6.28,6.28,0,0,0,4.18,1.19,17.83,17.83,0,0,0,5-.84,7.36,7.36,0,0,0,1.28-4.4,16.2,16.2,0,0,0,3.68.38,21.13,21.13,0,0,0,3.53-.28,10.7,10.7,0,0,0,2.45-.62,5.45,5.45,0,0,0,.69-1.49,4.9,4.9,0,0,0,.3-1.39,5.17,5.17,0,0,0-.46-2.25,3.46,3.46,0,0,0-1.26-1.5A3.24,3.24,0,0,0,92,4.77a5.9,5.9,0,0,0-3.12,1.06,12.88,12.88,0,0,0-3.32,3.24,1.9,1.9,0,0,1-1-.55,6.69,6.69,0,0,1-.83-1.25l-.16-.08-2.9,1.22a18.63,18.63,0,0,1,.7,2.35,19,19,0,0,1,.46,2.75,12.28,12.28,0,0,1-3,.48,2.61,2.61,0,0,1-1.75-.5,2,2,0,0,1-.57-1.56,9.86,9.86,0,0,1,.72-3.16l-2.76-.9a14.26,14.26,0,0,0-1.28,5.26,4.21,4.21,0,0,0,1.38,3.37"/><path class="cls-2" d="M144.66,9.29a2.52,2.52,0,0,1-.88-.38,3.06,3.06,0,0,1,1.6-.42,2.1,2.1,0,0,1,1,.2.64.64,0,0,1,.39.48.79.79,0,0,1-.41.17,3.64,3.64,0,0,1-.68.07,4.68,4.68,0,0,1-1-.12m3.11,2.51a4.78,4.78,0,0,0,.67-2.63,5.62,5.62,0,0,0-.36-2.07A3.29,3.29,0,0,0,147,5.68a2.57,2.57,0,0,0-1.57-.51,2.25,2.25,0,0,0-1.41.43,7.77,7.77,0,0,0-1.29,1.29,13.65,13.65,0,0,1-1,1.12,3.77,3.77,0,0,1-1.12.71A4,4,0,0,1,139,9H123.28a8.23,8.23,0,0,1-1.44-.1,11.15,11.15,0,0,0,1.24-2.24,1.83,1.83,0,0,0-.77-1.6,3.57,3.57,0,0,0-2.07-.54,9.27,9.27,0,0,0-3.74.86,5.3,5.3,0,0,0,.08,1.27,2.64,2.64,0,0,0,.25.93,1.93,1.93,0,0,1,1.87,1.18A11.66,11.66,0,0,1,116,9H101.44Q101,9,100.09,9a12,12,0,0,1-1.73-.24l-.18.12a21.39,21.39,0,0,1-1.64,3.76,34,34,0,0,1-2.11,3.22,7.44,7.44,0,0,0,1.26,1.06,7.54,7.54,0,0,0,1.77,1c.06-.08.24-.38.53-.91s.58-1.12.89-1.79q.69-1.55,1.08-2.58a8.92,8.92,0,0,0,1.48.16H116a7.5,7.5,0,0,0,2-.36,7.53,7.53,0,0,0,2.1-1,5,5,0,0,0,.75.68,3.33,3.33,0,0,0,1,.45,5.49,5.49,0,0,0,1.59.19H139a5,5,0,0,0,2-.38,4.35,4.35,0,0,0,1.55-1.1,7.17,7.17,0,0,0,1.65,1.16,3.76,3.76,0,0,0,1.68.44,2.16,2.16,0,0,0,1.9-1"/><path class="cls-2" d="M7.7,37.06a1.23,1.23,0,0,0-.43-.55,4.39,4.39,0,0,0-.84-.59,1.15,1.15,0,0,0-.67-.2,1.12,1.12,0,0,0-.56.41,5.43,5.43,0,0,0-.57.82,3.37,3.37,0,0,0-.31.71,4.35,4.35,0,0,0,.94.81,6.24,6.24,0,0,0,1.1.63,4,4,0,0,0,.89-1q.54-.75.45-1"/><path class="cls-2" d="M9.14,34.15a11.59,11.59,0,0,0,2.27-.45,7.13,7.13,0,0,0,.81-3.54,9.89,9.89,0,0,0-.36-2.7l-3.22.74c0,.1.14.38.28.84s.28.92.4,1.42c-.7.06-1.44.1-2.22.1a40.57,40.57,0,0,1-6.28-.5A16.68,16.68,0,0,0,0,33.7a28.64,28.64,0,0,0,6,.62,26.92,26.92,0,0,0,3.12-.17"/><path class="cls-2" d="M22,25a2.41,2.41,0,0,0-.78-.75,2,2,0,0,0-1-.45c-.22,0-.48.23-.8.7a4.17,4.17,0,0,0-.6,1.12,4.71,4.71,0,0,0,.88.73,7.09,7.09,0,0,0,1,.61,4.13,4.13,0,0,0,.52-.52,5.05,5.05,0,0,0,.52-.74,4.3,4.3,0,0,0,.86.71,6.14,6.14,0,0,0,1,.55,3.94,3.94,0,0,0,.82-.92c.32-.46.47-.78.44-1s-.29-.45-.75-.77a2.14,2.14,0,0,0-1-.49.78.78,0,0,0-.54.35A4.49,4.49,0,0,0,22,25"/><path class="cls-2" d="M70.55,33.7a6.32,6.32,0,0,0,.64-1.8,12,12,0,0,0,.18-2.16c0-1.46-.1-3.74-.28-6.86l-3.23.18L68,24.24c.11,1.09.21,2.19.31,3.3s.17,2.06.19,2.86c-.6.05-1.34.08-2.22.08H65v-.4c0-2.22-.12-4.62-.28-7.2l-3.24.18c.06.58.1,1,.14,1.32s.13,1.3.25,2.62.21,2.46.25,3.42c-.68,0-1.43.06-2.24.06H43.76a2.07,2.07,0,0,1-1.37-.59A20.12,20.12,0,0,1,40.66,28l-1-1.16,3.51-1.1v-3.3l-.29-.2L36.54,24.6v3.22a9.25,9.25,0,0,1,1,1c.32.35.75.85,1.29,1.49a29,29,0,0,1-3.64.18H25.53A3,3,0,0,1,24,30.19a1.24,1.24,0,0,1-.44-1.13,2.63,2.63,0,0,1,0-.44l-1.68-.26A3.2,3.2,0,0,1,20.29,30a6.42,6.42,0,0,1-2.58.45,6.25,6.25,0,0,1-.92-.08c0-.86,0-1.54,0-2,0-1.67-.06-3.5-.18-5.48l-3.23.18.12,4.06a61.44,61.44,0,0,0,.3,6.5,6.7,6.7,0,0,0,1.73.44,16.49,16.49,0,0,0,2.14.14,9.85,9.85,0,0,0,2.37-.28,5.5,5.5,0,0,0,2.17-1.12h.18a3.29,3.29,0,0,0,1.35,1,4.3,4.3,0,0,0,1.75.37h9.65c1.46,0,2.54,0,3.25-.1a6.32,6.32,0,0,0,1.71-.36l.76-1.1a7.42,7.42,0,0,0,1.45,1.15,2.87,2.87,0,0,0,1.41.41H59.92a5.75,5.75,0,0,0,3.32-.92,4,4,0,0,0,1.33.67,5.62,5.62,0,0,0,1.69.25h0a16.61,16.61,0,0,0,4.29-.5"/><path class="cls-2" d="M80,43.62a2.75,2.75,0,0,0,.52-.52,4.57,4.57,0,0,0,.52-.74,4.25,4.25,0,0,0,.86.71,5.8,5.8,0,0,0,1,.55,3.74,3.74,0,0,0,.82-.92,1.7,1.7,0,0,0,.44-1c0-.18-.29-.44-.75-.77a2.25,2.25,0,0,0-1-.49.81.81,0,0,0-.54.35,6,6,0,0,0-.58.85,2.31,2.31,0,0,0-.78-.75,2,2,0,0,0-1-.45c-.21,0-.48.23-.8.7a4.32,4.32,0,0,0-.6,1.12A4.66,4.66,0,0,0,79,43a6.26,6.26,0,0,0,1,.61"/><path class="cls-2" d="M103,29.74c0-1.45-.1-3.74-.28-6.86l-3.22.18.11,1.18c.11,1.09.22,2.19.32,3.3s.16,2.06.19,2.86c-.6.05-1.34.08-2.23.08H88.87c-1.09,0-2.16-.05-3.22-.14a24.83,24.83,0,0,1-2.8-.42l-1,2.64c.53.28,1.1.61,1.7,1a9.23,9.23,0,0,1,1.32,1,9.08,9.08,0,0,1-4,1.32,1.91,1.91,0,0,1-1.41-.5,2,2,0,0,1-.49-1.5,11.37,11.37,0,0,1,.78-3.5l-2.76-.9a18,18,0,0,0-1,3,11.17,11.17,0,0,0-.32,2.5,4.27,4.27,0,0,0,1.3,3.4,4.94,4.94,0,0,0,3.38,1.14A9,9,0,0,0,84,38.68a13.42,13.42,0,0,0,3.34-2,11.67,11.67,0,0,0,.16-2.6l.06,0a5.21,5.21,0,0,0,1.28.2h9.06a16.55,16.55,0,0,0,4.29-.5,6,6,0,0,0,.64-1.8,11.94,11.94,0,0,0,.18-2.16"/><path class="cls-2" d="M106.36,30.2a.47.47,0,0,1,.23-.43,1.05,1.05,0,0,1,.59-.15,2.11,2.11,0,0,1,1,.27,2.75,2.75,0,0,1,.85.69l-.64,0a8,8,0,0,1-1-.06c-.6-.08-.94-.19-1-.34m-2,6.76a1.1,1.1,0,0,0-.15.16,7.22,7.22,0,0,0,1.43,1.17,8.19,8.19,0,0,0,1.59.87,18.51,18.51,0,0,0,2.34-3.68,11,11,0,0,0,1.18-4.36,6.09,6.09,0,0,0-.26-2.1,4.13,4.13,0,0,0-1-1.75,2.26,2.26,0,0,0-1.66-.69,2.6,2.6,0,0,0-1.65.67,5.14,5.14,0,0,0-1.37,1.7,4.3,4.3,0,0,0-.54,2,2.36,2.36,0,0,0,.8,1.83,4.13,4.13,0,0,0,2,1,22.68,22.68,0,0,1-2.52,3,1.49,1.49,0,0,1-.17.18"/><path class="cls-2" d="M138.46,34.2h0a16.52,16.52,0,0,0,4.28-.5,5.76,5.76,0,0,0,.64-1.8,12,12,0,0,0,.18-2.16c0-1.46-.09-3.74-.28-6.86l-3.22.18.12,1.18c.1,1.09.21,2.19.31,3.3s.16,2.06.19,2.86c-.6.05-1.34.08-2.22.08H121a1.91,1.91,0,0,1-.86-.16,1.53,1.53,0,0,1-.56-.52,8.29,8.29,0,0,1-.56-1.1c-.4-1-.75-1.75-1-2.36a13.88,13.88,0,0,0-1.17-1.94L114,26.74a29.12,29.12,0,0,1,2.4,3.62,10.19,10.19,0,0,1-2.2.22c-.49,0-1.09,0-1.78-.1a12.59,12.59,0,0,0-.66,3.56,8.3,8.3,0,0,0,2.16.26,9.67,9.67,0,0,0,1.83-.16,6.15,6.15,0,0,0,1.37-.4c.33-.48.58-.85.74-1.1a4.94,4.94,0,0,0,1.51,1.17,3.65,3.65,0,0,0,1.59.39Z"/><path class="cls-2" d="M145.22,34.26a12.58,12.58,0,0,0,1.82-.17,4.25,4.25,0,0,0,1.34-.39c.05-.91.08-2.09.08-3.54,0-2.3-.09-4.72-.26-7.28l-3.24.18q.24,4.56.24,7.78c0,1.15,0,2.25-.1,3.32Z"/><path class="cls-2" d="M4.52,50.66a1.27,1.27,0,0,1-.92.3H2.33V48.69H3.6a1.26,1.26,0,0,1,.92.3,1.28,1.28,0,0,1,0,1.67m1.64.39a2.37,2.37,0,0,0,.36-1.36,2.28,2.28,0,0,0-.35-1.3,2.17,2.17,0,0,0-1-.8,4.12,4.12,0,0,0-1.57-.27h-3v7.84H2.33V52.32H3.56L5,55.16H6.81v-.09L5.13,51.89a2.41,2.41,0,0,0,1-.84"/><path class="cls-2" d="M8.52,47a1,1,0,0,0-.66.23.86.86,0,0,0,0,1.21,1.06,1.06,0,0,0,1.32,0,.86.86,0,0,0,0-1.21A1,1,0,0,0,8.52,47"/><rect class="cls-2" x="7.71" y="49.33" width="1.63" height="5.82"/><path class="cls-2" d="M12.8,52.86l-1-3.53H10l2,5.85-.16.43a.9.9,0,0,1-.33.44,1.24,1.24,0,0,1-.65.13h-.24V57.4a3.1,3.1,0,0,0,.36.09l.34,0a1.91,1.91,0,0,0,1-.23,1.81,1.81,0,0,0,.58-.55,3.76,3.76,0,0,0,.33-.7l2.34-6.7H13.85Z"/><path class="cls-2" d="M19.28,53.5a1,1,0,0,1-.39.38,1.26,1.26,0,0,1-.62.15.8.8,0,0,1-.53-.17.59.59,0,0,1-.2-.45.85.85,0,0,1,.28-.64,1.28,1.28,0,0,1,.84-.24h.62Zm1.63.22V51.28a2,2,0,0,0-.3-1.13,1.79,1.79,0,0,0-.84-.69,2.92,2.92,0,0,0-1.22-.23,3.36,3.36,0,0,0-1.31.24,2.11,2.11,0,0,0-.88.68,1.58,1.58,0,0,0-.31.94h1.63a.63.63,0,0,1,.21-.5.89.89,0,0,1,.58-.17.79.79,0,0,1,.61.22.93.93,0,0,1,.2.63v.33h-.66a3.31,3.31,0,0,0-2,.5,1.63,1.63,0,0,0-.69,1.41,1.54,1.54,0,0,0,.27.9,1.74,1.74,0,0,0,.71.63,2.19,2.19,0,0,0,1,.22,1.86,1.86,0,0,0,1.46-.63,1.76,1.76,0,0,0,.15.53h1.64v-.1a2,2,0,0,1-.18-.54,4.27,4.27,0,0,1-.06-.8"/><path class="cls-2" d="M25.48,53.37a1,1,0,0,1-1,.58.85.85,0,0,1-.8-.44,2.43,2.43,0,0,1-.25-1.2V52.2A2.45,2.45,0,0,1,23.7,51a.86.86,0,0,1,.81-.45,1,1,0,0,1,1,.58Zm0-3.52a1.76,1.76,0,0,0-1.38-.62,2,2,0,0,0-1.23.37,2.26,2.26,0,0,0-.78,1,4.18,4.18,0,0,0-.27,1.56v.11a4.09,4.09,0,0,0,.27,1.53,2.37,2.37,0,0,0,.78,1,2,2,0,0,0,1.22.38,1.77,1.77,0,0,0,1.47-.73l.08.63h1.47V46.89H25.48Z"/><path class="cls-2" d="M31.39,49.22a1.91,1.91,0,0,0-1.53.74V46.89H28.23v8.27h1.63V51a1,1,0,0,1,.93-.47,1,1,0,0,1,.69.21,1.07,1.07,0,0,1,.22.75v3.66h1.62V51.51a2.53,2.53,0,0,0-.5-1.74,1.88,1.88,0,0,0-1.43-.55"/><rect class="cls-2" x="37.01" y="47.32" width="1.69" height="7.84"/><path class="cls-2" d="M43.27,49.22a2.2,2.2,0,0,0-.94.2,2.1,2.1,0,0,0-.74.59l-.05-.68H40v5.83h1.62V51.05a1.06,1.06,0,0,1,.38-.38,1.09,1.09,0,0,1,.55-.13,1,1,0,0,1,.69.2,1,1,0,0,1,.22.72v3.7H45.1v-3.7a2.5,2.5,0,0,0-.48-1.71,1.73,1.73,0,0,0-1.35-.53"/><path class="cls-2" d="M48.31,53.8a.63.63,0,0,1-.14-.47V50.52h1V49.33h-1V47.89H46.55v1.44h-.83v1.19h.83v3a1.52,1.52,0,0,0,1.71,1.74,2.85,2.85,0,0,0,1-.15V53.89a2.07,2.07,0,0,1-.46,0,.62.62,0,0,1-.45-.13"/><path class="cls-2" d="M53.52,51.68H51.44a1.75,1.75,0,0,1,.34-.84.9.9,0,0,1,.73-.31.92.92,0,0,1,.74.28,1.09,1.09,0,0,1,.27.74Zm.4-2.11a3,3,0,0,0-2.86,0,2.47,2.47,0,0,0-1,1.07,3.5,3.5,0,0,0-.33,1.55v.21a3,3,0,0,0,.35,1.42,2.7,2.7,0,0,0,1,1,3.1,3.1,0,0,0,1.56.37,3,3,0,0,0,1.38-.3,2.37,2.37,0,0,0,.89-.74l-.78-.9a1.67,1.67,0,0,1-.61.48,2,2,0,0,1-.78.16,1.36,1.36,0,0,1-.92-.32,1.47,1.47,0,0,1-.45-.87h3.68v-.69a3.54,3.54,0,0,0-.3-1.51,2.28,2.28,0,0,0-.89-1"/><path class="cls-2" d="M58.83,49.22a1.37,1.37,0,0,0-.75.21,1.61,1.61,0,0,0-.54.61l0-.71H56v5.83h1.62V51.39a1.13,1.13,0,0,1,1.14-.57,4,4,0,0,1,.58,0l0-1.57-.23,0-.26,0"/><path class="cls-2" d="M63.24,49.22a2.28,2.28,0,0,0-1,.2,2.16,2.16,0,0,0-.73.59l-.05-.68H60v5.83h1.63V51.05a1.06,1.06,0,0,1,.38-.38,1.09,1.09,0,0,1,.55-.13.94.94,0,0,1,.68.2.93.93,0,0,1,.22.72v3.7h1.63v-3.7a2.5,2.5,0,0,0-.48-1.71,1.74,1.74,0,0,0-1.35-.53"/><path class="cls-2" d="M69.33,53.5a1,1,0,0,1-.4.38,1.21,1.21,0,0,1-.62.15.77.77,0,0,1-.52-.17.56.56,0,0,1-.2-.45.81.81,0,0,1,.28-.64,1.24,1.24,0,0,1,.84-.24h.62Zm1.62.22V51.28a2,2,0,0,0-.3-1.13,1.81,1.81,0,0,0-.83-.69,3,3,0,0,0-1.22-.23,3.29,3.29,0,0,0-1.31.24,2,2,0,0,0-.88.68,1.52,1.52,0,0,0-.31.94h1.62a.63.63,0,0,1,.21-.5.91.91,0,0,1,.58-.17.77.77,0,0,1,.61.22.89.89,0,0,1,.21.63v.33h-.66a3.37,3.37,0,0,0-2,.5A1.65,1.65,0,0,0,66,53.51a1.61,1.61,0,0,0,.26.9,1.74,1.74,0,0,0,.71.63,2.22,2.22,0,0,0,1,.22,1.84,1.84,0,0,0,1.46-.63,1.75,1.75,0,0,0,.16.53h1.63v-.1a2,2,0,0,1-.18-.54,4.27,4.27,0,0,1-.06-.8"/><path class="cls-2" d="M74.17,53.8a.63.63,0,0,1-.13-.47V50.52h1V49.33H74V47.89H72.41v1.44h-.82v1.19h.82v3a1.52,1.52,0,0,0,1.71,1.74,2.85,2.85,0,0,0,1-.15V53.89a2,2,0,0,1-.45,0,.63.63,0,0,1-.46-.13"/><rect class="cls-2" x="75.93" y="49.33" width="1.63" height="5.82"/><path class="cls-2" d="M76.74,47a1,1,0,0,0-.66.23.86.86,0,0,0,0,1.21,1.06,1.06,0,0,0,1.32,0,.86.86,0,0,0,0-1.21,1,1,0,0,0-.66-.23"/><path class="cls-2" d="M82.48,52.3a2.32,2.32,0,0,1-.27,1.2,1.07,1.07,0,0,1-1.75,0,2.33,2.33,0,0,1-.27-1.21v-.11a2.37,2.37,0,0,1,.27-1.2,1,1,0,0,1,.87-.46,1,1,0,0,1,.88.46,2.32,2.32,0,0,1,.27,1.2Zm.35-2.69a2.79,2.79,0,0,0-1.5-.39,2.76,2.76,0,0,0-1.49.39,2.42,2.42,0,0,0-1,1,3.44,3.44,0,0,0-.33,1.53v.11a3.44,3.44,0,0,0,.33,1.53,2.42,2.42,0,0,0,1,1.05,2.79,2.79,0,0,0,1.5.38,2.75,2.75,0,0,0,1.49-.38,2.42,2.42,0,0,0,1-1.05,3.44,3.44,0,0,0,.33-1.53v-.11a3.44,3.44,0,0,0-.33-1.53,2.42,2.42,0,0,0-1-1"/><path class="cls-2" d="M88.24,49.22a2.23,2.23,0,0,0-.94.2,2,2,0,0,0-.73.59l-.06-.68H85v5.83h1.62V51.05a1.15,1.15,0,0,1,.38-.38,1.1,1.1,0,0,1,.56-.13,1,1,0,0,1,.68.2.93.93,0,0,1,.22.72v3.7h1.62v-3.7a2.5,2.5,0,0,0-.47-1.71,1.76,1.76,0,0,0-1.36-.53"/><path class="cls-2" d="M94.33,53.5a1,1,0,0,1-.39.38,1.28,1.28,0,0,1-.63.15.79.79,0,0,1-.52-.17.59.59,0,0,1-.2-.45.85.85,0,0,1,.28-.64,1.28,1.28,0,0,1,.84-.24h.62Zm1.63.22V51.28a2,2,0,0,0-.3-1.13,1.84,1.84,0,0,0-.84-.69,2.92,2.92,0,0,0-1.22-.23,3.36,3.36,0,0,0-1.31.24,2.11,2.11,0,0,0-.88.68,1.58,1.58,0,0,0-.31.94h1.63a.65.65,0,0,1,.2-.5.93.93,0,0,1,.58-.17.8.8,0,0,1,.62.22.93.93,0,0,1,.2.63v.33h-.66a3.31,3.31,0,0,0-2,.5A1.63,1.63,0,0,0,91,53.51a1.61,1.61,0,0,0,.26.9A1.83,1.83,0,0,0,92,55a2.19,2.19,0,0,0,1,.22,1.86,1.86,0,0,0,1.46-.63,1.76,1.76,0,0,0,.15.53h1.63v-.1a2.45,2.45,0,0,1-.17-.54,4.27,4.27,0,0,1-.06-.8"/><rect class="cls-2" x="97.2" y="46.89" width="1.63" height="8.27"/><path class="cls-2" d="M106.18,53.53a1.32,1.32,0,0,1-.88.26H104v-2h1.41c.73,0,1.1.35,1.1,1.06a.92.92,0,0,1-.29.7M104,48.69H105a1.56,1.56,0,0,1,1,.23.89.89,0,0,1,.29.74.82.82,0,0,1-.31.7,1.6,1.6,0,0,1-1,.23H104Zm2.91,2.44a1.76,1.76,0,0,0,.84-.66,2,2,0,0,0-.49-2.61,3.77,3.77,0,0,0-2.19-.54h-2.76v7.84h3a3.31,3.31,0,0,0,2.12-.59,2.09,2.09,0,0,0,.74-1.73,1.87,1.87,0,0,0-.32-1.07,1.57,1.57,0,0,0-1-.64"/><path class="cls-2" d="M112.91,52.3a2.22,2.22,0,0,1-.28,1.2.92.92,0,0,1-.86.46.94.94,0,0,1-.88-.45,2.33,2.33,0,0,1-.27-1.21v-.11a2.37,2.37,0,0,1,.27-1.2,1.05,1.05,0,0,1,1.74,0,2.27,2.27,0,0,1,.28,1.2Zm.35-2.69a2.79,2.79,0,0,0-1.5-.38,2.73,2.73,0,0,0-1.49.38,2.36,2.36,0,0,0-1,1,3.44,3.44,0,0,0-.33,1.53v.11a3.44,3.44,0,0,0,.33,1.53,2.36,2.36,0,0,0,1,1.05,3.13,3.13,0,0,0,3,0,2.48,2.48,0,0,0,.95-1.05,3.44,3.44,0,0,0,.32-1.53v-.11a3.44,3.44,0,0,0-.32-1.53,2.48,2.48,0,0,0-.95-1"/><path class="cls-2" d="M119.13,52.3a2.32,2.32,0,0,1-.27,1.2,1.07,1.07,0,0,1-1.75,0,2.33,2.33,0,0,1-.27-1.21v-.11a2.37,2.37,0,0,1,.27-1.2.94.94,0,0,1,.87-.46,1,1,0,0,1,.88.46,2.37,2.37,0,0,1,.27,1.2Zm.35-2.69a2.79,2.79,0,0,0-1.5-.38,2.73,2.73,0,0,0-1.49.38,2.36,2.36,0,0,0-.95,1,3.44,3.44,0,0,0-.33,1.53v.11a3.44,3.44,0,0,0,.33,1.53,2.36,2.36,0,0,0,.95,1.05,2.79,2.79,0,0,0,1.5.38,2.75,2.75,0,0,0,1.49-.38,2.42,2.42,0,0,0,1-1.05,3.44,3.44,0,0,0,.32-1.53v-.11a3.44,3.44,0,0,0-.32-1.53,2.48,2.48,0,0,0-1-1"/><polygon class="cls-2" points="126.98 49.33 125.03 49.33 123.57 51.06 123.3 51.41 123.3 46.88 121.68 46.88 121.68 55.16 123.3 55.16 123.3 53.41 123.84 52.86 125.28 55.16 127.14 55.16 124.89 51.75 126.98 49.33"/><polygon class="cls-2" points="130.44 47.32 130.44 55.16 132.13 55.16 132.13 51.98 135.21 51.98 135.21 50.62 132.13 50.62 132.13 48.69 135.58 48.69 135.58 47.32 132.13 47.32 130.44 47.32"/><path class="cls-2" d="M139.11,53.5a1,1,0,0,1-.39.38,1.26,1.26,0,0,1-.62.15.8.8,0,0,1-.53-.17.58.58,0,0,1-.19-.45.84.84,0,0,1,.27-.64,1.28,1.28,0,0,1,.84-.24h.62Zm1.63.22V51.28a2,2,0,0,0-.3-1.13,1.79,1.79,0,0,0-.84-.69,2.92,2.92,0,0,0-1.22-.23,3.36,3.36,0,0,0-1.31.24,2.11,2.11,0,0,0-.88.68,1.58,1.58,0,0,0-.31.94h1.63a.63.63,0,0,1,.21-.5.89.89,0,0,1,.58-.17.79.79,0,0,1,.61.22.93.93,0,0,1,.2.63v.33h-.66a3.31,3.31,0,0,0-2,.5,1.62,1.62,0,0,0-.68,1.41,1.54,1.54,0,0,0,.26.9,1.74,1.74,0,0,0,.71.63,2.19,2.19,0,0,0,1,.22,1.86,1.86,0,0,0,1.46-.63,1.76,1.76,0,0,0,.15.53H141v-.1a2,2,0,0,1-.18-.54,4.27,4.27,0,0,1-.06-.8"/><rect class="cls-2" x="141.98" y="49.33" width="1.63" height="5.82"/><path class="cls-2" d="M142.78,47a.92.92,0,0,0-.65.24.76.76,0,0,0-.25.6.79.79,0,0,0,.25.6,1,1,0,0,0,.65.23.93.93,0,0,0,.66-.23.79.79,0,0,0,.25-.6.76.76,0,0,0-.25-.6.89.89,0,0,0-.66-.24"/><path class="cls-2" d="M147.72,49.22a1.32,1.32,0,0,0-.75.22,1.51,1.51,0,0,0-.54.6l-.05-.71h-1.53v5.83h1.63V51.39a1.11,1.11,0,0,1,1.13-.57,4,4,0,0,1,.58,0l0-1.57-.23,0-.26,0"/></g></g></svg>